<?xml version="1.0" encoding="UTF-8"?>
<svg id="Layer_1" xmlns="http://www.w3.org/2000/svg" width="51" height="48" version="1.1" xmlns:xlink="http://www.w3.org/1999/xlink" viewBox="0 0 51 48">
  <!-- Generator: Adobe Illustrator 29.1.0, SVG Export Plug-In . SVG Version: 2.1.0 Build 142)  -->
  <defs>
    <style>
      .st0 {
        fill: #8c62aa;
      }

      .st1 {
        fill: #a5add3;
      }

      .st1, .st2 {
        opacity: .8;
      }

      .st3 {
        fill: #be64ac;
      }

      .st4 {
        font-family: NotoSans-Regular, 'Noto Sans';
        font-size: 2.5px;
      }

      .st5 {
        fill: #231f20;
      }

      .st6 {
        fill: #dfb0d6;
      }

      .st6, .st7, .st8 {
        opacity: .5;
      }

      .st9 {
        fill: #e8e8e8;
        opacity: .6;
      }

      .st7 {
        fill: #e4acac;
      }

      .st2 {
        fill: #5698b9;
      }

      .st10 {
        fill: #3b4994;
      }

      .st8 {
        fill: #5ac8c8;
      }

      .st11 {
        fill: #eb2d34;
      }
    </style>
    <symbol id="Arrow_3" viewBox="0 0 23.2 21.5">
      <g>
        <polygon class="st11" points="0 21.5 8.9 10.8 0 0 23.2 10.8 0 21.5"/>
        <polygon class="st5" points="0 21.5 8.9 10.8 0 0 23.2 10.8 0 21.5"/>
      </g>
    </symbol>
  </defs>
  <rect class="st9" x="20.9" y="33.2" width="10" height="10" transform="translate(-19.4 29.5) rotate(-45)"/>
  <rect class="st7" x="13.8" y="26.1" width="10" height="10" transform="translate(-16.5 22.4) rotate(-45)"/>
  <rect class="st8" x="28" y="26.1" width="10" height="10" transform="translate(-12.3 32.4) rotate(-45)"/>
  <rect class="st6" x="20.9" y="19" width="10" height="10" transform="translate(-9.4 25.4) rotate(-45)"/>
  <rect class="st1" x="28" y="12" width="10" height="10" transform="translate(-2.3 28.3) rotate(-45)"/>
  <rect class="st2" x="35" y="19" width="10" height="10" transform="translate(-5.3 35.4) rotate(-45)"/>
  <rect class="st3" x="6.8" y="19" width="10" height="10" transform="translate(-13.5 15.4) rotate(-45)"/>
  <rect class="st0" x="13.8" y="12" width="10" height="10" transform="translate(-6.5 18.3) rotate(-45)"/>
  <rect class="st10" x="20.9" y="4.9" width="10" height="10" transform="translate(.6 21.2) rotate(-45)"/>
  <rect x="21.2" y="33.8" width="30.7" height=".7" transform="translate(-13.4 35.8) rotate(-45)"/>
  <use width="23.2" height="21.5" transform="translate(44.8 23.5) rotate(-45) scale(.1)" xlink:href="#Arrow_3"/>
  <rect x="-.2" y="33.9" width="30.7" height=".7" transform="translate(1.6 69.2) rotate(-135)"/>
  <use width="23.2" height="21.5" transform="translate(4.3 25.7) rotate(-135) scale(.1)" xlink:href="#Arrow_3"/>
  <text class="st4" transform="translate(29.5 45.2) rotate(-45)"><tspan x="0" y="0">Health Risk Behavior</tspan></text>
  <text class="st4" transform="translate(6.6 30.5) rotate(45)"><tspan x="0" y="0">Health Outcome</tspan></text>
</svg>